<svg class="viz" xmlns="http://www.w3.org/2000/svg" viewBox="0 0 760 440" width="100%" role="img" aria-labelledby="C:\Users\martin.roelfs\OneDrive - Flanders Make vzw\Code\rotorch\docs\_static\o3-cpu-time.svg-t C:\Users\martin.roelfs\OneDrive - Flanders Make vzw\Code\rotorch\docs\_static\o3-cpu-time.svg-d">
<title id="C:\Users\martin.roelfs\OneDrive - Flanders Make vzw\Code\rotorch\docs\_static\o3-cpu-time.svg-t">Milliseconds per step against batch size, o3 on the CPU</title>
<desc id="C:\Users\martin.roelfs\OneDrive - Flanders Make vzw\Code\rotorch\docs\_static\o3-cpu-time.svg-d">Log-log lines, one per run, against batch size. At batch 2048: rotorch-model 10 ms / step, rotorch 37 ms / step, rotorch-operators 59 ms / step, cgenn-compiled 65 ms / step, cgenn 84 ms / step.</desc>
<style>
.viz { font-family: system-ui, -apple-system, "Segoe UI", Roboto, sans-serif;
  --ink: #0b0b0b; --ink-2: #52514e; --grid: #e7e7e4; --surface: #ffffff;
  --cgenn: #2a78d6; --cgenn-compiled: #2a78d6; --rotorch: #1baf7a;
  --rotorch-operators: #eda100; --rotorch-model: #eb6834;
  --rotorch-triton: #e87ba4; }
.viz .grid { stroke: var(--grid); stroke-width: 1; }
.viz .tick { fill: var(--ink-2); font-size: 11px; font-variant-numeric: tabular-nums; }
.viz .axis { fill: var(--ink-2); font-size: 11px; }
.viz .legend { fill: var(--ink); font-size: 12px; }
.viz .end { fill: var(--ink-2); font-size: 11px; }
.viz .line { fill: none; stroke-width: 2; stroke-linecap: round; stroke-linejoin: round; }
.viz .line.dashed { stroke-dasharray: 6 4; }
.viz .line.dotted { stroke-dasharray: 2 3; }
.viz .dot { stroke: var(--surface); stroke-width: 2; }
.viz .cgenn { stroke: var(--cgenn); } .viz circle.cgenn { fill: var(--cgenn); }
.viz rect.cgenn { fill: var(--cgenn); }
.viz .cgenn-compiled { stroke: var(--cgenn-compiled); }
.viz circle.cgenn-compiled, .viz rect.cgenn-compiled { fill: var(--cgenn-compiled); }
.viz .rotorch { stroke: var(--rotorch); }
.viz circle.rotorch, .viz rect.rotorch { fill: var(--rotorch); }
.viz .rotorch-operators { stroke: var(--rotorch-operators); }
.viz circle.rotorch-operators, .viz rect.rotorch-operators { fill: var(--rotorch-operators); }
.viz .rotorch-model { stroke: var(--rotorch-model); }
.viz circle.rotorch-model, .viz rect.rotorch-model { fill: var(--rotorch-model); }
.viz .rotorch-triton { stroke: var(--rotorch-triton); }
.viz circle.rotorch-triton, .viz rect.rotorch-triton { fill: var(--rotorch-triton); }
@media (prefers-color-scheme: dark) {
  :root:where(:not([data-theme="light"])) .viz, body:where(:not([data-theme="light"])) .viz {
    --ink: #ffffff; --ink-2: #c3c2b7; --grid: #2b2c2f; --surface: #131416;
    --cgenn: #3987e5; --cgenn-compiled: #3987e5; --rotorch: #199e70;
    --rotorch-operators: #c98500; --rotorch-model: #d95926;
    --rotorch-triton: #d55181; } }
:root[data-theme="dark"] .viz, body[data-theme="dark"] .viz {
  --ink: #ffffff; --ink-2: #c3c2b7; --grid: #2b2c2f; --surface: #131416;
  --cgenn: #3987e5; --cgenn-compiled: #3987e5; --rotorch: #199e70;
  --rotorch-operators: #c98500; --rotorch-model: #d95926;
  --rotorch-triton: #d55181; }
</style>
<line class="grid" x1="64" y1="388.0" x2="602" y2="388.0"/>
<text class="tick" x="54" y="392.0" text-anchor="end">1</text>
<line class="grid" x1="64" y1="340.4" x2="602" y2="340.4"/>
<text class="tick" x="54" y="344.4" text-anchor="end">2</text>
<line class="grid" x1="64" y1="277.6" x2="602" y2="277.6"/>
<text class="tick" x="54" y="281.6" text-anchor="end">5</text>
<line class="grid" x1="64" y1="230.0" x2="602" y2="230.0"/>
<text class="tick" x="54" y="234.0" text-anchor="end">10</text>
<line class="grid" x1="64" y1="182.4" x2="602" y2="182.4"/>
<text class="tick" x="54" y="186.4" text-anchor="end">20</text>
<line class="grid" x1="64" y1="119.6" x2="602" y2="119.6"/>
<text class="tick" x="54" y="123.6" text-anchor="end">50</text>
<line class="grid" x1="64" y1="72.0" x2="602" y2="72.0"/>
<text class="tick" x="54" y="76.0" text-anchor="end">100</text>
<line class="grid" x1="64.0" y1="72" x2="64.0" y2="388"/>
<text class="tick" x="64.0" y="408" text-anchor="middle">32</text>
<line class="grid" x1="243.3" y1="72" x2="243.3" y2="388"/>
<text class="tick" x="243.3" y="408" text-anchor="middle">128</text>
<line class="grid" x1="422.7" y1="72" x2="422.7" y2="388"/>
<text class="tick" x="422.7" y="408" text-anchor="middle">512</text>
<line class="grid" x1="602.0" y1="72" x2="602.0" y2="388"/>
<text class="tick" x="602.0" y="408" text-anchor="middle">2048</text>
<text class="axis" x="54" y="58" text-anchor="end">ms / step</text>
<text class="axis" x="333" y="432" text-anchor="middle">batch size</text>
<rect class="swatch cgenn" x="64" y="18" width="22" height="3" rx="1.5"/>
<text class="legend" x="92" y="24">cgenn</text>
<rect class="swatch cgenn-compiled" x="134.0" y="18" width="22" height="3" rx="1.5"/>
<text class="legend" x="162.0" y="24">cgenn-compiled</text>
<rect class="swatch rotorch" x="268.8" y="18" width="22" height="3" rx="1.5"/>
<text class="legend" x="296.8" y="24">rotorch</text>
<rect class="swatch rotorch-operators" x="353.20000000000005" y="18" width="22" height="3" rx="1.5"/>
<text class="legend" x="381.20000000000005" y="24">rotorch-operators</text>
<rect class="swatch rotorch-model" x="64" y="36" width="22" height="3" rx="1.5"/>
<text class="legend" x="92" y="42">rotorch-model</text>
<polyline class="line cgenn solid" points="64.0,221.0 243.3,175.9 422.7,126.0 602.0,83.7"/>
<circle class="dot cgenn" cx="64.0" cy="221.0" r="4"><title>cgenn · batch 32 · 11.4 ms / step</title></circle>
<circle class="dot cgenn" cx="243.3" cy="175.9" r="4"><title>cgenn · batch 128 · 22.0 ms / step</title></circle>
<circle class="dot cgenn" cx="422.7" cy="126.0" r="4"><title>cgenn · batch 512 · 45.5 ms / step</title></circle>
<circle class="dot cgenn" cx="602.0" cy="83.7" r="4"><title>cgenn · batch 2048 · 84.3 ms / step</title></circle>
<polyline class="line cgenn-compiled dashed" points="64.0,211.5 243.3,190.8 422.7,146.8 602.0,101.2"/>
<circle class="dot cgenn-compiled" cx="64.0" cy="211.5" r="4"><title>cgenn-compiled · batch 32 · 13.1 ms / step</title></circle>
<circle class="dot cgenn-compiled" cx="243.3" cy="190.8" r="4"><title>cgenn-compiled · batch 128 · 17.7 ms / step</title></circle>
<circle class="dot cgenn-compiled" cx="422.7" cy="146.8" r="4"><title>cgenn-compiled · batch 512 · 33.6 ms / step</title></circle>
<circle class="dot cgenn-compiled" cx="602.0" cy="101.2" r="4"><title>cgenn-compiled · batch 2048 · 65.3 ms / step</title></circle>
<polyline class="line rotorch solid" points="64.0,250.7 243.3,235.7 422.7,192.0 602.0,139.9"/>
<circle class="dot rotorch" cx="64.0" cy="250.7" r="4"><title>rotorch · batch 32 · 7.4 ms / step</title></circle>
<circle class="dot rotorch" cx="243.3" cy="235.7" r="4"><title>rotorch · batch 128 · 9.2 ms / step</title></circle>
<circle class="dot rotorch" cx="422.7" cy="192.0" r="4"><title>rotorch · batch 512 · 17.4 ms / step</title></circle>
<circle class="dot rotorch" cx="602.0" cy="139.9" r="4"><title>rotorch · batch 2048 · 37.2 ms / step</title></circle>
<polyline class="line rotorch-operators dashed" points="64.0,230.0 243.3,211.5 422.7,172.8 602.0,108.1"/>
<circle class="dot rotorch-operators" cx="64.0" cy="230.0" r="4"><title>rotorch-operators · batch 32 · 10.0 ms / step</title></circle>
<circle class="dot rotorch-operators" cx="243.3" cy="211.5" r="4"><title>rotorch-operators · batch 128 · 13.1 ms / step</title></circle>
<circle class="dot rotorch-operators" cx="422.7" cy="172.8" r="4"><title>rotorch-operators · batch 512 · 23.0 ms / step</title></circle>
<circle class="dot rotorch-operators" cx="602.0" cy="108.1" r="4"><title>rotorch-operators · batch 2048 · 59.1 ms / step</title></circle>
<polyline class="line rotorch-model dashed" points="64.0,344.0 243.3,306.1 422.7,287.9 602.0,230.0"/>
<circle class="dot rotorch-model" cx="64.0" cy="344.0" r="4"><title>rotorch-model · batch 32 · 1.9 ms / step</title></circle>
<circle class="dot rotorch-model" cx="243.3" cy="306.1" r="4"><title>rotorch-model · batch 128 · 3.3 ms / step</title></circle>
<circle class="dot rotorch-model" cx="422.7" cy="287.9" r="4"><title>rotorch-model · batch 512 · 4.3 ms / step</title></circle>
<circle class="dot rotorch-model" cx="602.0" cy="230.0" r="4"><title>rotorch-model · batch 2048 · 10.0 ms / step</title></circle>
<text class="end" x="614.0" y="87.7">cgenn</text>
<text class="end" x="614.0" y="105.2">cgenn-compiled</text>
<text class="end" x="614.0" y="119.2">rotorch-operators</text>
<text class="end" x="614.0" y="143.9">rotorch</text>
<text class="end" x="614.0" y="234.0">rotorch-model</text>
</svg>
